<svg width="422" height="176" viewBox="0 0 422 176" fill="none" xmlns="http://www.w3.org/2000/svg">
<path d="M1.96622 66C1.06622 66 0.616219 65.58 0.616219 64.74C0.616219 63.84 1.06622 63.39 1.96622 63.39C4.48622 63.39 6.34622 63.24 7.54622 62.94C8.74622 62.64 9.52622 62.1 9.88622 61.32C10.3062 60.48 10.5162 59.34 10.5162 57.9V8.58003C10.5162 7.26003 10.3362 6.21003 9.97622 5.43003C9.67622 4.65003 8.89622 4.11003 7.63622 3.81003C6.43622 3.45003 4.48622 3.27003 1.78622 3.27003C1.48622 3.27003 1.21622 3.15003 0.976219 2.91003C0.736219 2.61003 0.616219 2.31003 0.616219 2.01003C0.616219 1.11003 1.00622 0.660034 1.78622 0.660034C2.32622 0.660034 3.82622 0.720033 6.28622 0.840032C8.74622 0.900031 11.9862 0.930031 16.0062 0.930031C20.9862 0.930031 25.2462 0.900031 28.7862 0.840032C32.3862 0.720033 35.2662 0.660034 37.4262 0.660034C44.2662 0.660034 49.5762 2.22003 53.3562 5.34003C57.1362 8.46003 59.0262 12.87 59.0262 18.57C59.0262 24.15 57.4362 28.5 54.2562 31.62C51.1362 34.68 45.9762 36.21 38.7762 36.21H22.5762C21.8562 36.21 21.4962 36.6 21.4962 37.38V57.9C21.4962 60.06 22.1562 61.53 23.4762 62.31C24.7962 63.03 27.4362 63.39 31.3962 63.39C32.1762 63.39 32.5662 63.84 32.5662 64.74C32.5662 65.58 32.1762 66 31.3962 66C30.7962 66 29.1162 65.97 26.3562 65.91C23.6562 65.79 20.2062 65.73 16.0062 65.73C11.9862 65.73 8.77622 65.79 6.37622 65.91C4.03622 65.97 2.56622 66 1.96622 66ZM22.5762 33.24H34.3662C38.2662 33.24 41.2962 31.89 43.4562 29.19C45.6162 26.49 46.6962 22.95 46.6962 18.57C46.6962 15.81 46.2762 13.29 45.4362 11.01C44.6562 8.73003 43.2462 6.90003 41.2062 5.52003C39.2262 4.14003 36.4362 3.45003 32.8362 3.45003H23.3862C22.8462 3.45003 22.3962 3.57003 22.0362 3.81003C21.6762 3.99003 21.4962 4.50003 21.4962 5.34003V32.07C21.4962 32.31 21.5862 32.58 21.7662 32.88C22.0062 33.12 22.2762 33.24 22.5762 33.24Z" fill="white"/>
<path d="M58.3132 66C57.4132 66 56.9632 65.49 56.9632 64.47C56.9632 63.51 57.4132 63.03 58.3132 63.03C60.7732 63.03 62.6032 62.58 63.8032 61.68C65.0032 60.78 65.6032 59.25 65.6032 57.09V31.35C65.6032 30.03 65.4533 29.04 65.1533 28.38C64.9133 27.72 64.3732 27.33 63.5332 27.21C63.2332 27.15 62.6632 27.09 61.8232 27.03C60.9832 26.91 60.1432 26.82 59.3032 26.76C58.5232 26.7 57.9833 26.64 57.6833 26.58C56.8433 26.4 56.4232 25.92 56.4232 25.14C56.4232 24.12 56.8733 23.61 57.7733 23.61C57.9533 23.61 58.7333 23.61 60.1133 23.61C61.5533 23.55 63.1432 23.52 64.8832 23.52C66.6832 23.52 68.3032 23.52 69.7432 23.52C71.2432 23.46 72.1732 23.43 72.5332 23.43C74.0332 23.43 74.7832 24.21 74.7832 25.77V30.81C74.7832 31.05 74.8733 31.2 75.0533 31.26C75.2333 31.32 75.4133 31.23 75.5933 30.99C76.4933 29.61 77.6032 28.26 78.9232 26.94C80.2432 25.62 81.7432 24.54 83.4232 23.7C85.1632 22.8 87.0233 22.35 89.0033 22.35C92.4833 22.35 95.0632 23.07 96.7432 24.51C98.4232 25.95 99.2633 27.81 99.2633 30.09C99.2633 31.41 98.7533 32.76 97.7333 34.14C96.7733 35.46 95.3032 36.12 93.3232 36.12C91.1032 36.12 89.5733 35.55 88.7333 34.41C87.9533 33.21 87.5632 32.04 87.5632 30.9C87.5632 29.7 87.3832 28.86 87.0232 28.38C86.6632 27.84 86.0332 27.57 85.1332 27.57C83.5732 27.57 82.0133 28.32 80.4533 29.82C78.9533 31.32 77.6932 33.27 76.6732 35.67C75.7132 38.01 75.2333 40.56 75.2333 43.32V56.91C75.2333 59.19 75.9233 60.78 77.3033 61.68C78.7433 62.58 80.5433 63.03 82.7033 63.03C83.6633 63.03 84.1432 63.51 84.1432 64.47C84.1432 65.49 83.6633 66 82.7033 66C82.1033 66 80.6933 65.97 78.4733 65.91C76.3133 65.79 73.6133 65.73 70.3733 65.73C67.6133 65.73 65.0632 65.79 62.7232 65.91C60.4432 65.97 58.9732 66 58.3132 66Z" fill="white"/>
<path d="M119.366 67.08C112.526 67.08 107.156 65.22 103.256 61.5C99.4163 57.78 97.4963 52.44 97.4963 45.48C97.4963 41.1 98.3663 37.17 100.106 33.69C101.846 30.21 104.306 27.45 107.486 25.41C110.726 23.37 114.476 22.35 118.736 22.35C121.976 22.35 124.796 22.98 127.196 24.24C129.596 25.5 131.576 27.15 133.136 29.19C134.696 31.23 135.866 33.45 136.646 35.85C137.426 38.19 137.816 40.5 137.816 42.78C137.816 43.74 137.216 44.22 136.016 44.22H109.376C108.536 44.22 108.116 44.7 108.116 45.66C108.116 49.86 108.596 53.13 109.556 55.47C110.516 57.81 111.896 59.46 113.696 60.42C115.556 61.38 117.746 61.86 120.266 61.86C123.326 61.86 126.056 61.2 128.456 59.88C130.916 58.56 132.926 56.91 134.486 54.93C135.146 54.15 135.896 54.03 136.736 54.57C137.576 55.11 137.696 55.83 137.096 56.73C135.896 58.53 134.516 60.21 132.956 61.77C131.456 63.33 129.596 64.62 127.376 65.64C125.216 66.6 122.546 67.08 119.366 67.08ZM110.006 40.71H125.216C126.416 40.71 127.016 40.14 127.016 39C127.016 35.1 126.386 31.89 125.126 29.37C123.926 26.85 121.736 25.59 118.556 25.59C115.856 25.59 113.696 26.82 112.076 29.28C110.516 31.68 109.346 34.98 108.566 39.18C108.386 40.2 108.866 40.71 110.006 40.71Z" fill="white"/>
<path d="M138.925 66C137.965 66 137.485 65.49 137.485 64.47C137.485 63.51 137.965 63.03 138.925 63.03C141.205 63.03 142.735 62.58 143.515 61.68C144.295 60.78 144.685 59.25 144.685 57.09V8.67003C144.685 6.99003 144.505 5.91003 144.145 5.43003C143.845 4.89003 143.275 4.53003 142.435 4.35003C142.015 4.23003 141.295 4.14003 140.275 4.08003C139.315 3.96003 138.625 3.87003 138.205 3.81003C137.365 3.69003 136.945 3.21003 136.945 2.37003C136.945 1.47003 137.395 0.96003 138.295 0.840032C138.475 0.840032 139.225 0.840032 140.545 0.840032C141.865 0.780033 143.335 0.750033 144.955 0.750033C146.635 0.750033 148.165 0.750033 149.545 0.750033C150.925 0.690034 151.795 0.660034 152.155 0.660034C153.655 0.660034 154.405 1.44003 154.405 3.00003V29.28C154.405 29.52 154.495 29.67 154.675 29.73C154.855 29.73 155.035 29.61 155.215 29.37C156.475 27.45 158.185 25.8 160.345 24.42C162.505 23.04 164.965 22.35 167.725 22.35C170.305 22.35 172.615 22.8 174.655 23.7C176.755 24.6 178.405 26.16 179.605 28.38C180.865 30.54 181.495 33.6 181.495 37.56V56.91C181.495 59.13 181.795 60.72 182.395 61.68C183.055 62.58 184.135 63.03 185.635 63.03C186.595 63.03 187.075 63.51 187.075 64.47C187.075 65.49 186.595 66 185.635 66C185.215 66 184.465 65.97 183.385 65.91C182.305 65.85 181.135 65.82 179.875 65.82C178.615 65.76 177.445 65.73 176.365 65.73C175.345 65.73 174.175 65.76 172.855 65.82C171.535 65.82 170.335 65.85 169.255 65.91C168.175 65.97 167.395 66 166.915 66C166.015 66 165.565 65.49 165.565 64.47C165.565 63.51 166.015 63.03 166.915 63.03C169.075 63.03 170.425 62.58 170.965 61.68C171.505 60.78 171.775 59.25 171.775 57.09V38.28C171.775 34.5 171.175 31.77 169.975 30.09C168.835 28.41 167.035 27.57 164.575 27.57C162.955 27.57 161.365 28.08 159.805 29.1C158.245 30.12 156.955 31.47 155.935 33.15C154.915 34.83 154.405 36.72 154.405 38.82V56.91C154.405 59.13 154.765 60.72 155.485 61.68C156.205 62.58 157.375 63.03 158.995 63.03C159.895 63.03 160.345 63.51 160.345 64.47C160.345 65.49 159.895 66 158.995 66C158.575 66 157.795 65.97 156.655 65.91C155.515 65.85 154.285 65.82 152.965 65.82C151.705 65.76 150.535 65.73 149.455 65.73C148.435 65.73 147.175 65.76 145.675 65.82C144.175 65.82 142.765 65.85 141.445 65.91C140.185 65.97 139.345 66 138.925 66Z" fill="white"/>
<path d="M187.272 66C186.312 66 185.832 65.52 185.832 64.56C185.832 63.54 186.312 63.03 187.272 63.03C189.552 63.03 191.082 62.55 191.862 61.59C192.642 60.63 193.032 59.07 193.032 56.91V31.35C193.032 29.67 192.852 28.56 192.492 28.02C192.192 27.42 191.622 27.09 190.782 27.03C190.362 26.97 189.642 26.91 188.622 26.85C187.662 26.73 186.972 26.64 186.552 26.58C185.712 26.4 185.292 25.89 185.292 25.05C185.292 24.09 185.742 23.61 186.642 23.61C186.822 23.61 187.572 23.61 188.892 23.61C190.212 23.55 191.682 23.52 193.302 23.52C194.982 23.52 196.512 23.52 197.892 23.52C199.272 23.46 200.142 23.43 200.502 23.43C202.002 23.43 202.752 24.12 202.752 25.5V56.91C202.752 59.07 203.112 60.63 203.832 61.59C204.552 62.55 205.872 63.03 207.792 63.03C208.692 63.03 209.142 63.54 209.142 64.56C209.142 65.52 208.692 66 207.792 66C207.372 66 206.562 65.97 205.362 65.91C204.162 65.85 202.872 65.82 201.492 65.82C200.112 65.76 198.882 65.73 197.802 65.73C196.782 65.73 195.522 65.76 194.022 65.82C192.522 65.82 191.112 65.85 189.792 65.91C188.532 65.97 187.692 66 187.272 66ZM197.172 13.62C195.372 13.62 193.842 12.99 192.582 11.73C191.322 10.47 190.692 8.94003 190.692 7.14003C190.692 5.34003 191.322 3.81003 192.582 2.55003C193.842 1.29003 195.372 0.660034 197.172 0.660034C198.972 0.660034 200.502 1.29003 201.762 2.55003C203.022 3.81003 203.652 5.34003 203.652 7.14003C203.652 8.94003 203.022 10.47 201.762 11.73C200.502 12.99 198.972 13.62 197.172 13.62Z" fill="white"/>
<path d="M229.41 67.08C227.25 67.08 225.06 66.75 222.84 66.09C220.62 65.49 218.76 64.89 217.26 64.29C216.54 63.99 215.88 63.87 215.28 63.93C214.74 63.99 214.23 64.17 213.75 64.47C213.39 64.71 213.06 64.98 212.76 65.28C212.52 65.52 212.25 65.79 211.95 66.09C211.35 66.69 210.72 66.87 210.06 66.63C209.46 66.39 209.16 65.85 209.16 65.01V52.5C209.16 51.72 209.49 51.27 210.15 51.15C210.87 51.03 211.41 51.27 211.77 51.87C216.27 59.25 222.21 62.94 229.59 62.94C232.47 62.94 234.9 62.34 236.88 61.14C238.92 59.94 239.94 58.17 239.94 55.83C239.94 54.27 239.22 53.07 237.78 52.23C236.34 51.39 234.48 50.73 232.2 50.25C229.92 49.71 227.52 49.14 225 48.54C222.48 47.94 220.08 47.13 217.8 46.11C215.52 45.09 213.66 43.68 212.22 41.88C210.78 40.02 210.06 37.56 210.06 34.5C210.06 32.46 210.6 30.51 211.68 28.65C212.82 26.79 214.53 25.29 216.81 24.15C219.09 22.95 221.97 22.35 225.45 22.35C227.43 22.35 229.38 22.59 231.3 23.07C233.28 23.49 234.99 24 236.43 24.6C238.11 25.26 239.31 25.29 240.03 24.69C240.33 24.45 240.63 24.21 240.93 23.97C241.29 23.67 241.62 23.4 241.92 23.16C242.46 22.8 242.94 22.68 243.36 22.8C243.84 22.86 244.08 23.28 244.08 24.06V35.31C244.08 36.09 243.72 36.57 243 36.75C242.28 36.87 241.77 36.63 241.47 36.03C239.97 32.49 237.84 29.94 235.08 28.38C232.32 26.82 229.56 26.04 226.8 26.04C223.68 26.04 221.31 26.73 219.69 28.11C218.07 29.43 217.26 30.96 217.26 32.7C217.26 34.14 217.98 35.25 219.42 36.03C220.86 36.75 222.69 37.35 224.91 37.83C227.19 38.25 229.59 38.73 232.11 39.27C234.63 39.75 237 40.5 239.22 41.52C241.5 42.54 243.36 44.01 244.8 45.93C246.24 47.79 246.96 50.31 246.96 53.49C246.96 56.01 246.24 58.32 244.8 60.42C243.36 62.46 241.32 64.08 238.68 65.28C236.04 66.48 232.95 67.08 229.41 67.08Z" fill="white"/>
<path d="M263.408 67.08C260.828 67.08 258.578 66.48 256.658 65.28C254.738 64.08 253.778 61.83 253.778 58.53V27.66C253.778 27.18 253.508 26.94 252.968 26.94H247.478C246.518 26.94 246.038 26.46 246.038 25.5V25.23C246.038 24.81 246.158 24.51 246.398 24.33C246.698 24.09 247.058 23.91 247.478 23.79C250.958 22.59 253.628 20.79 255.488 18.39C257.408 15.93 258.608 12.51 259.088 8.13003C259.088 7.17003 259.568 6.69003 260.528 6.69003H262.058C262.418 6.69003 262.749 6.84003 263.049 7.14003C263.348 7.38003 263.498 7.71003 263.498 8.13003V22.62C263.498 23.16 263.738 23.43 264.218 23.43H274.478C275.438 23.43 275.918 23.88 275.918 24.78V25.5C275.918 26.46 275.438 26.94 274.478 26.94H264.218C263.738 26.94 263.498 27.18 263.498 27.66V55.38C263.498 58.68 265.208 60.33 268.628 60.33C270.248 60.33 271.688 59.85 272.948 58.89C274.268 57.93 275.258 56.82 275.918 55.56C276.398 54.66 277.148 54.51 278.168 55.11C278.588 55.35 278.799 55.65 278.799 56.01C278.799 56.37 278.708 56.79 278.528 57.27C277.508 59.85 275.738 62.13 273.218 64.11C270.758 66.09 267.488 67.08 263.408 67.08Z" fill="white"/>
<path d="M297.98 67.08C293.66 67.08 289.91 66.12 286.73 64.2C283.55 62.22 281.09 59.55 279.35 56.19C277.61 52.83 276.74 48.99 276.74 44.67C276.74 40.35 277.61 36.51 279.35 33.15C281.09 29.79 283.55 27.15 286.73 25.23C289.91 23.31 293.66 22.35 297.98 22.35C302.3 22.35 306.02 23.31 309.14 25.23C312.32 27.15 314.78 29.79 316.52 33.15C318.26 36.51 319.13 40.35 319.13 44.67C319.13 48.99 318.26 52.83 316.52 56.19C314.78 59.55 312.32 62.22 309.14 64.2C306.02 66.12 302.3 67.08 297.98 67.08ZM297.98 64.02C301.7 64.02 304.37 62.25 305.99 58.71C307.67 55.11 308.51 50.43 308.51 44.67C308.51 38.97 307.67 34.35 305.99 30.81C304.37 27.21 301.7 25.41 297.98 25.41C294.26 25.41 291.56 27.21 289.88 30.81C288.2 34.35 287.36 38.97 287.36 44.67C287.36 50.43 288.2 55.11 289.88 58.71C291.56 62.25 294.26 64.02 297.98 64.02Z" fill="white"/>
<path d="M319.837 66C318.937 66 318.487 65.49 318.487 64.47C318.487 63.51 318.937 63.03 319.837 63.03C322.297 63.03 324.127 62.58 325.327 61.68C326.527 60.78 327.127 59.25 327.127 57.09V31.35C327.127 30.03 326.977 29.04 326.677 28.38C326.437 27.72 325.897 27.33 325.057 27.21C324.757 27.15 324.187 27.09 323.347 27.03C322.507 26.91 321.667 26.82 320.827 26.76C320.047 26.7 319.507 26.64 319.207 26.58C318.367 26.4 317.947 25.92 317.947 25.14C317.947 24.12 318.397 23.61 319.297 23.61C319.477 23.61 320.257 23.61 321.637 23.61C323.077 23.55 324.667 23.52 326.407 23.52C328.207 23.52 329.827 23.52 331.267 23.52C332.767 23.46 333.697 23.43 334.057 23.43C335.557 23.43 336.307 24.21 336.307 25.77V30.81C336.307 31.05 336.397 31.2 336.577 31.26C336.757 31.32 336.937 31.23 337.117 30.99C338.017 29.61 339.127 28.26 340.447 26.94C341.767 25.62 343.267 24.54 344.947 23.7C346.687 22.8 348.547 22.35 350.527 22.35C354.007 22.35 356.587 23.07 358.267 24.51C359.947 25.95 360.787 27.81 360.787 30.09C360.787 31.41 360.277 32.76 359.257 34.14C358.297 35.46 356.827 36.12 354.847 36.12C352.627 36.12 351.097 35.55 350.257 34.41C349.477 33.21 349.087 32.04 349.087 30.9C349.087 29.7 348.907 28.86 348.547 28.38C348.187 27.84 347.557 27.57 346.657 27.57C345.097 27.57 343.537 28.32 341.977 29.82C340.477 31.32 339.217 33.27 338.197 35.67C337.237 38.01 336.757 40.56 336.757 43.32V56.91C336.757 59.19 337.447 60.78 338.827 61.68C340.267 62.58 342.067 63.03 344.227 63.03C345.187 63.03 345.667 63.51 345.667 64.47C345.667 65.49 345.187 66 344.227 66C343.627 66 342.217 65.97 339.997 65.91C337.837 65.79 335.137 65.73 331.897 65.73C329.137 65.73 326.587 65.79 324.247 65.91C321.967 65.97 320.497 66 319.837 66Z" fill="white"/>
<path d="M360.1 66C359.14 66 358.66 65.52 358.66 64.56C358.66 63.54 359.14 63.03 360.1 63.03C362.38 63.03 363.91 62.55 364.69 61.59C365.47 60.63 365.86 59.07 365.86 56.91V31.35C365.86 29.67 365.68 28.56 365.32 28.02C365.02 27.42 364.45 27.09 363.61 27.03C363.19 26.97 362.47 26.91 361.45 26.85C360.49 26.73 359.8 26.64 359.38 26.58C358.54 26.4 358.12 25.89 358.12 25.05C358.12 24.09 358.57 23.61 359.47 23.61C359.65 23.61 360.4 23.61 361.72 23.61C363.04 23.55 364.51 23.52 366.13 23.52C367.81 23.52 369.34 23.52 370.72 23.52C372.1 23.46 372.97 23.43 373.33 23.43C374.83 23.43 375.58 24.12 375.58 25.5V56.91C375.58 59.07 375.94 60.63 376.66 61.59C377.38 62.55 378.7 63.03 380.62 63.03C381.52 63.03 381.97 63.54 381.97 64.56C381.97 65.52 381.52 66 380.62 66C380.2 66 379.39 65.97 378.19 65.91C376.99 65.85 375.7 65.82 374.32 65.82C372.94 65.76 371.71 65.73 370.63 65.73C369.61 65.73 368.35 65.76 366.85 65.82C365.35 65.82 363.94 65.85 362.62 65.91C361.36 65.97 360.52 66 360.1 66ZM370 13.62C368.2 13.62 366.67 12.99 365.41 11.73C364.15 10.47 363.52 8.94003 363.52 7.14003C363.52 5.34003 364.15 3.81003 365.41 2.55003C366.67 1.29003 368.2 0.660034 370 0.660034C371.8 0.660034 373.33 1.29003 374.59 2.55003C375.85 3.81003 376.48 5.34003 376.48 7.14003C376.48 8.94003 375.85 10.47 374.59 11.73C373.33 12.99 371.8 13.62 370 13.62Z" fill="white"/>
<path d="M402.688 67.08C398.788 67.08 395.188 66.36 391.888 64.92C388.648 63.48 386.038 61.17 384.058 57.99C382.078 54.75 381.088 50.55 381.088 45.39C381.088 41.07 381.988 37.17 383.788 33.69C385.588 30.21 388.198 27.45 391.618 25.41C395.038 23.37 399.178 22.35 404.038 22.35C406.678 22.35 409.138 22.86 411.418 23.88C413.698 24.84 415.558 26.16 416.998 27.84C418.438 29.52 419.158 31.47 419.158 33.69C419.158 35.37 418.588 36.81 417.448 38.01C416.368 39.15 414.958 39.72 413.218 39.72C411.478 39.72 410.158 39.3 409.258 38.46C408.418 37.56 408.028 36.42 408.088 35.04C408.148 34.2 408.328 33.54 408.628 33.06C408.988 32.52 409.348 31.95 409.708 31.35C410.068 30.75 410.248 30 410.248 29.1C410.248 28.44 409.768 27.72 408.808 26.94C407.848 26.16 406.468 25.77 404.668 25.77C402.748 25.77 400.768 26.4 398.728 27.66C396.748 28.86 395.068 30.9 393.688 33.78C392.368 36.6 391.708 40.47 391.708 45.39C391.708 51.03 392.938 55.23 395.398 57.99C397.858 60.75 400.918 62.13 404.578 62.13C406.978 62.13 409.048 61.68 410.788 60.78C412.588 59.88 414.088 58.77 415.288 57.45C416.548 56.07 417.448 54.72 417.988 53.4C418.408 52.44 419.098 52.17 420.058 52.59C421.018 52.95 421.288 53.64 420.868 54.66C420.208 56.4 419.188 58.23 417.808 60.15C416.488 62.07 414.628 63.72 412.228 65.1C409.828 66.42 406.648 67.08 402.688 67.08Z" fill="white"/>
<path d="M110.096 174C109.196 174 108.746 173.58 108.746 172.74C108.746 171.84 109.196 171.39 110.096 171.39C112.616 171.39 114.476 171.24 115.676 170.94C116.876 170.64 117.656 170.1 118.016 169.32C118.436 168.48 118.646 167.34 118.646 165.9V116.58C118.646 115.26 118.466 114.21 118.106 113.43C117.806 112.65 117.026 112.11 115.766 111.81C114.566 111.45 112.616 111.27 109.916 111.27C109.616 111.27 109.346 111.15 109.106 110.91C108.866 110.61 108.746 110.31 108.746 110.01C108.746 109.11 109.136 108.66 109.916 108.66C110.456 108.66 111.956 108.72 114.416 108.84C116.876 108.9 120.116 108.93 124.136 108.93C129.116 108.93 133.376 108.9 136.916 108.84C140.516 108.72 143.396 108.66 145.556 108.66C152.396 108.66 157.706 110.22 161.486 113.34C165.266 116.46 167.156 120.87 167.156 126.57C167.156 132.15 165.566 136.5 162.386 139.62C159.266 142.68 154.106 144.21 146.906 144.21H130.706C129.986 144.21 129.626 144.6 129.626 145.38V165.9C129.626 168.06 130.286 169.53 131.606 170.31C132.926 171.03 135.566 171.39 139.526 171.39C140.306 171.39 140.696 171.84 140.696 172.74C140.696 173.58 140.306 174 139.526 174C138.926 174 137.246 173.97 134.486 173.91C131.786 173.79 128.336 173.73 124.136 173.73C120.116 173.73 116.906 173.79 114.506 173.91C112.166 173.97 110.696 174 110.096 174ZM130.706 141.24H142.496C146.396 141.24 149.426 139.89 151.586 137.19C153.746 134.49 154.826 130.95 154.826 126.57C154.826 123.81 154.406 121.29 153.566 119.01C152.786 116.73 151.376 114.9 149.336 113.52C147.356 112.14 144.566 111.45 140.966 111.45H131.516C130.976 111.45 130.526 111.57 130.166 111.81C129.806 111.99 129.626 112.5 129.626 113.34V140.07C129.626 140.31 129.716 140.58 129.896 140.88C130.136 141.12 130.406 141.24 130.706 141.24Z" fill="white"/>
<path d="M184.32 175.08C180 175.08 176.25 174.12 173.07 172.2C169.89 170.22 167.43 167.55 165.69 164.19C163.95 160.83 163.08 156.99 163.08 152.67C163.08 148.35 163.95 144.51 165.69 141.15C167.43 137.79 169.89 135.15 173.07 133.23C176.25 131.31 180 130.35 184.32 130.35C188.64 130.35 192.36 131.31 195.48 133.23C198.66 135.15 201.12 137.79 202.86 141.15C204.6 144.51 205.47 148.35 205.47 152.67C205.47 156.99 204.6 160.83 202.86 164.19C201.12 167.55 198.66 170.22 195.48 172.2C192.36 174.12 188.64 175.08 184.32 175.08ZM184.32 172.02C188.04 172.02 190.71 170.25 192.33 166.71C194.01 163.11 194.85 158.43 194.85 152.67C194.85 146.97 194.01 142.35 192.33 138.81C190.71 135.21 188.04 133.41 184.32 133.41C180.6 133.41 177.9 135.21 176.22 138.81C174.54 142.35 173.7 146.97 173.7 152.67C173.7 158.43 174.54 163.11 176.22 166.71C177.9 170.25 180.6 172.02 184.32 172.02Z" fill="white"/>
<path d="M224.813 175.08C220.613 175.08 217.163 174 214.463 171.84C211.823 169.68 210.503 166.23 210.503 161.49V139.26C210.503 137.88 210.353 136.86 210.053 136.2C209.813 135.54 209.243 135.12 208.343 134.94C207.863 134.82 207.263 134.73 206.543 134.67C205.883 134.61 205.313 134.55 204.833 134.49C203.993 134.31 203.573 133.8 203.573 132.96C203.573 132 204.023 131.52 204.923 131.52C205.103 131.52 205.793 131.52 206.993 131.52C208.253 131.46 209.663 131.43 211.223 131.43C212.783 131.43 214.193 131.43 215.453 131.43C216.773 131.37 217.613 131.34 217.973 131.34C219.473 131.34 220.223 132.12 220.223 133.68V160.05C220.223 163.17 221.003 165.45 222.563 166.89C224.123 168.33 226.163 169.05 228.683 169.05C231.863 169.05 234.203 168.06 235.703 166.08C237.263 164.04 238.043 161.64 238.043 158.88V139.26C238.043 137.88 237.893 136.86 237.593 136.2C237.353 135.54 236.783 135.12 235.883 134.94C235.403 134.82 234.803 134.73 234.083 134.67C233.423 134.61 232.853 134.55 232.373 134.49C231.533 134.31 231.113 133.8 231.113 132.96C231.113 132 231.563 131.52 232.463 131.52C232.643 131.52 233.333 131.52 234.533 131.52C235.793 131.46 237.203 131.43 238.763 131.43C240.323 131.43 241.733 131.43 242.993 131.43C244.313 131.37 245.153 131.34 245.513 131.34C247.013 131.34 247.763 132.12 247.763 133.68V166.17C247.763 167.85 247.913 168.93 248.213 169.41C248.573 169.89 249.143 170.22 249.923 170.4C250.343 170.46 250.703 170.55 251.003 170.67C251.363 170.73 251.693 170.82 251.993 170.94C252.893 171 253.343 171.48 253.343 172.38C253.343 173.34 252.863 173.82 251.903 173.82C251.723 173.82 251.123 173.85 250.103 173.91C249.083 173.91 247.883 173.91 246.503 173.91C245.183 173.91 243.953 173.94 242.813 174C241.733 174 241.013 174 240.653 174C239.213 174 238.463 173.31 238.403 171.93C238.403 171.57 238.373 171.03 238.313 170.31C238.313 169.59 238.283 169.02 238.223 168.6C238.223 168.18 238.103 167.97 237.863 167.97C237.683 167.91 237.443 168.06 237.143 168.42C236.663 169.08 235.913 169.95 234.893 171.03C233.873 172.05 232.523 172.98 230.843 173.82C229.223 174.66 227.213 175.08 224.813 175.08Z" fill="white"/>
<path d="M252.942 174C252.042 174 251.592 173.49 251.592 172.47C251.592 171.51 252.042 171.03 252.942 171.03C255.402 171.03 257.232 170.58 258.432 169.68C259.632 168.78 260.232 167.25 260.232 165.09V139.35C260.232 138.03 260.082 137.04 259.782 136.38C259.542 135.72 259.002 135.33 258.162 135.21C257.862 135.15 257.292 135.09 256.452 135.03C255.612 134.91 254.772 134.82 253.932 134.76C253.152 134.7 252.612 134.64 252.312 134.58C251.472 134.4 251.052 133.92 251.052 133.14C251.052 132.12 251.502 131.61 252.402 131.61C252.582 131.61 253.362 131.61 254.742 131.61C256.182 131.55 257.772 131.52 259.512 131.52C261.312 131.52 262.932 131.52 264.372 131.52C265.872 131.46 266.802 131.43 267.162 131.43C268.662 131.43 269.412 132.21 269.412 133.77V138.81C269.412 139.05 269.502 139.2 269.682 139.26C269.862 139.32 270.042 139.23 270.222 138.99C271.122 137.61 272.232 136.26 273.552 134.94C274.872 133.62 276.372 132.54 278.052 131.7C279.792 130.8 281.652 130.35 283.632 130.35C287.112 130.35 289.692 131.07 291.372 132.51C293.052 133.95 293.892 135.81 293.892 138.09C293.892 139.41 293.382 140.76 292.362 142.14C291.402 143.46 289.932 144.12 287.952 144.12C285.732 144.12 284.202 143.55 283.362 142.41C282.582 141.21 282.192 140.04 282.192 138.9C282.192 137.7 282.012 136.86 281.652 136.38C281.292 135.84 280.662 135.57 279.762 135.57C278.202 135.57 276.642 136.32 275.082 137.82C273.582 139.32 272.322 141.27 271.302 143.67C270.342 146.01 269.862 148.56 269.862 151.32V164.91C269.862 167.19 270.552 168.78 271.932 169.68C273.372 170.58 275.172 171.03 277.332 171.03C278.292 171.03 278.772 171.51 278.772 172.47C278.772 173.49 278.292 174 277.332 174C276.732 174 275.322 173.97 273.102 173.91C270.942 173.79 268.242 173.73 265.002 173.73C262.242 173.73 259.692 173.79 257.352 173.91C255.072 173.97 253.602 174 252.942 174Z" fill="white"/>
<path d="M313.275 175.08C311.115 175.08 308.925 174.75 306.705 174.09C304.485 173.49 302.625 172.89 301.125 172.29C300.405 171.99 299.745 171.87 299.145 171.93C298.605 171.99 298.095 172.17 297.615 172.47C297.255 172.71 296.925 172.98 296.625 173.28C296.385 173.52 296.115 173.79 295.815 174.09C295.215 174.69 294.585 174.87 293.925 174.63C293.325 174.39 293.025 173.85 293.025 173.01V160.5C293.025 159.72 293.355 159.27 294.015 159.15C294.735 159.03 295.275 159.27 295.635 159.87C300.135 167.25 306.075 170.94 313.455 170.94C316.335 170.94 318.765 170.34 320.745 169.14C322.785 167.94 323.805 166.17 323.805 163.83C323.805 162.27 323.085 161.07 321.645 160.23C320.205 159.39 318.345 158.73 316.065 158.25C313.785 157.71 311.385 157.14 308.865 156.54C306.345 155.94 303.945 155.13 301.665 154.11C299.385 153.09 297.525 151.68 296.085 149.88C294.645 148.02 293.925 145.56 293.925 142.5C293.925 140.46 294.465 138.51 295.545 136.65C296.685 134.79 298.395 133.29 300.675 132.15C302.955 130.95 305.835 130.35 309.315 130.35C311.295 130.35 313.245 130.59 315.165 131.07C317.145 131.49 318.855 132 320.295 132.6C321.975 133.26 323.175 133.29 323.895 132.69C324.195 132.45 324.495 132.21 324.795 131.97C325.155 131.67 325.485 131.4 325.785 131.16C326.325 130.8 326.805 130.68 327.225 130.8C327.705 130.86 327.945 131.28 327.945 132.06V143.31C327.945 144.09 327.585 144.57 326.865 144.75C326.145 144.87 325.635 144.63 325.335 144.03C323.835 140.49 321.705 137.94 318.945 136.38C316.185 134.82 313.425 134.04 310.665 134.04C307.545 134.04 305.175 134.73 303.555 136.11C301.935 137.43 301.125 138.96 301.125 140.7C301.125 142.14 301.845 143.25 303.285 144.03C304.725 144.75 306.555 145.35 308.775 145.83C311.055 146.25 313.455 146.73 315.975 147.27C318.495 147.75 320.865 148.5 323.085 149.52C325.365 150.54 327.225 152.01 328.665 153.93C330.105 155.79 330.825 158.31 330.825 161.49C330.825 164.01 330.105 166.32 328.665 168.42C327.225 170.46 325.185 172.08 322.545 173.28C319.905 174.48 316.815 175.08 313.275 175.08Z" fill="white"/>
<path d="M104.637 95V78.536H112.725C113.701 78.536 114.525 78.696 115.197 79.016C115.885 79.32 116.405 79.768 116.757 80.36C117.125 80.952 117.309 81.656 117.309 82.472C117.309 83.096 117.197 83.672 116.973 84.2C116.765 84.728 116.469 85.176 116.085 85.544C115.701 85.912 115.245 86.184 114.717 86.36V86.456C115.277 86.584 115.781 86.808 116.229 87.128C116.693 87.432 117.061 87.864 117.333 88.424C117.621 88.968 117.765 89.672 117.765 90.536C117.765 91.656 117.549 92.544 117.117 93.2C116.685 93.84 116.085 94.304 115.317 94.592C114.565 94.864 113.701 95 112.725 95H104.637ZM106.173 93.632H112.989C113.949 93.632 114.725 93.4 115.317 92.936C115.909 92.456 116.205 91.624 116.205 90.44C116.205 89.688 116.077 89.08 115.821 88.616C115.565 88.136 115.181 87.784 114.669 87.56C114.173 87.336 113.565 87.224 112.845 87.224H106.173V93.632ZM106.173 85.88H112.581C113.189 85.88 113.725 85.752 114.189 85.496C114.669 85.24 115.045 84.888 115.317 84.44C115.605 83.976 115.749 83.432 115.749 82.808C115.749 81.816 115.477 81.088 114.933 80.624C114.389 80.144 113.677 79.904 112.797 79.904H106.173V85.88Z" fill="white"/>
<path d="M120.679 95V82.376H121.759L121.903 84.536H122.047C122.143 84.152 122.295 83.776 122.503 83.408C122.727 83.024 123.039 82.712 123.439 82.472C123.839 82.216 124.335 82.088 124.927 82.088C125.167 82.088 125.375 82.104 125.551 82.136C125.727 82.168 125.855 82.2 125.935 82.232V83.48H125.239C124.663 83.48 124.167 83.6 123.751 83.84C123.351 84.064 123.023 84.368 122.767 84.752C122.527 85.136 122.351 85.568 122.239 86.048C122.127 86.528 122.071 87.016 122.071 87.512V95H120.679Z" fill="white"/>
<path d="M132.485 95.288C131.317 95.288 130.317 95.056 129.485 94.592C128.669 94.112 128.045 93.384 127.613 92.408C127.197 91.432 126.989 90.192 126.989 88.688C126.989 87.168 127.197 85.928 127.613 84.968C128.045 83.992 128.677 83.272 129.509 82.808C130.357 82.328 131.397 82.088 132.629 82.088C133.797 82.088 134.773 82.32 135.557 82.784C136.341 83.248 136.933 83.912 137.333 84.776C137.733 85.64 137.933 86.68 137.933 87.896V89.048H128.453C128.453 90.264 128.613 91.248 128.933 92C129.269 92.736 129.741 93.272 130.349 93.608C130.957 93.928 131.685 94.088 132.533 94.088C133.221 94.088 133.805 94 134.285 93.824C134.781 93.632 135.181 93.384 135.485 93.08C135.805 92.776 136.045 92.424 136.205 92.024C136.381 91.624 136.477 91.216 136.493 90.8H137.837C137.821 91.376 137.709 91.936 137.501 92.48C137.293 93.008 136.973 93.488 136.541 93.92C136.109 94.336 135.557 94.672 134.885 94.928C134.213 95.168 133.413 95.288 132.485 95.288ZM128.453 87.872H136.493C136.493 87.024 136.389 86.312 136.181 85.736C135.989 85.144 135.717 84.672 135.365 84.32C135.013 83.952 134.597 83.688 134.117 83.528C133.637 83.368 133.109 83.288 132.533 83.288C131.685 83.288 130.965 83.456 130.373 83.792C129.797 84.112 129.341 84.608 129.005 85.28C128.685 85.952 128.501 86.816 128.453 87.872Z" fill="white"/>
<path d="M143.168 95L139.328 82.376H140.768L142.856 89.384C142.952 89.704 143.056 90.08 143.168 90.512C143.28 90.944 143.392 91.36 143.504 91.76C143.616 92.16 143.704 92.504 143.768 92.792H143.888C143.968 92.472 144.056 92.104 144.152 91.688C144.248 91.256 144.344 90.84 144.44 90.44C144.552 90.024 144.64 89.672 144.704 89.384L146.48 82.376H148.04L149.816 89.384C149.896 89.688 149.984 90.048 150.08 90.464C150.176 90.88 150.272 91.296 150.368 91.712C150.464 92.128 150.544 92.488 150.608 92.792H150.728C150.824 92.488 150.928 92.136 151.04 91.736C151.152 91.32 151.264 90.904 151.376 90.488C151.504 90.072 151.608 89.704 151.688 89.384L153.776 82.376H155.096L151.232 95H149.936L148.112 88.016C148.048 87.728 147.96 87.368 147.848 86.936C147.736 86.504 147.632 86.064 147.536 85.616C147.44 85.152 147.352 84.736 147.272 84.368H147.128C147.064 84.704 146.984 85.096 146.888 85.544C146.792 85.992 146.688 86.44 146.576 86.888C146.48 87.32 146.392 87.704 146.312 88.04L144.512 95H143.168Z" fill="white"/>
<path d="M161.758 95.288C160.59 95.288 159.59 95.056 158.758 94.592C157.942 94.112 157.318 93.384 156.886 92.408C156.47 91.432 156.262 90.192 156.262 88.688C156.262 87.168 156.47 85.928 156.886 84.968C157.318 83.992 157.95 83.272 158.782 82.808C159.63 82.328 160.67 82.088 161.902 82.088C163.07 82.088 164.046 82.32 164.83 82.784C165.614 83.248 166.206 83.912 166.606 84.776C167.006 85.64 167.206 86.68 167.206 87.896V89.048H157.726C157.726 90.264 157.886 91.248 158.206 92C158.542 92.736 159.014 93.272 159.622 93.608C160.23 93.928 160.958 94.088 161.806 94.088C162.494 94.088 163.078 94 163.558 93.824C164.054 93.632 164.454 93.384 164.758 93.08C165.078 92.776 165.318 92.424 165.478 92.024C165.654 91.624 165.75 91.216 165.766 90.8H167.11C167.094 91.376 166.982 91.936 166.774 92.48C166.566 93.008 166.246 93.488 165.814 93.92C165.382 94.336 164.83 94.672 164.158 94.928C163.486 95.168 162.686 95.288 161.758 95.288ZM157.726 87.872H165.766C165.766 87.024 165.662 86.312 165.454 85.736C165.262 85.144 164.99 84.672 164.638 84.32C164.286 83.952 163.87 83.688 163.39 83.528C162.91 83.368 162.382 83.288 161.806 83.288C160.958 83.288 160.238 83.456 159.646 83.792C159.07 84.112 158.614 84.608 158.278 85.28C157.958 85.952 157.774 86.816 157.726 87.872Z" fill="white"/>
<path d="M174.122 95.288C173.066 95.288 172.162 95.056 171.41 94.592C170.674 94.128 170.106 93.4 169.706 92.408C169.322 91.416 169.13 90.128 169.13 88.544C169.13 87.056 169.33 85.84 169.73 84.896C170.13 83.952 170.698 83.248 171.434 82.784C172.186 82.32 173.074 82.088 174.098 82.088C174.642 82.088 175.146 82.152 175.61 82.28C176.09 82.408 176.522 82.616 176.906 82.904C177.306 83.192 177.658 83.584 177.962 84.08H178.13V77.648H179.522V95H178.466L178.274 93.104H178.106C177.658 93.856 177.082 94.408 176.378 94.76C175.674 95.112 174.922 95.288 174.122 95.288ZM174.242 94.064C175.17 94.064 175.914 93.864 176.474 93.464C177.05 93.064 177.466 92.48 177.722 91.712C177.994 90.944 178.13 90.008 178.13 88.904V88.448C178.13 87.344 178.01 86.456 177.77 85.784C177.546 85.112 177.25 84.6 176.882 84.248C176.514 83.88 176.106 83.632 175.658 83.504C175.226 83.376 174.802 83.312 174.386 83.312C173.554 83.312 172.858 83.488 172.298 83.84C171.738 84.176 171.314 84.712 171.026 85.448C170.738 86.184 170.594 87.152 170.594 88.352V89.024C170.594 90.288 170.746 91.288 171.05 92.024C171.37 92.76 171.802 93.288 172.346 93.608C172.906 93.912 173.538 94.064 174.242 94.064Z" fill="white"/>
<path d="M188.563 95V83.6H186.667V82.376H188.563V80C188.563 79.568 188.619 79.16 188.731 78.776C188.859 78.392 189.091 78.08 189.427 77.84C189.779 77.584 190.267 77.456 190.891 77.456C191.083 77.456 191.275 77.464 191.467 77.48C191.659 77.496 191.843 77.52 192.019 77.552C192.195 77.568 192.355 77.6 192.499 77.648V78.68H191.203C190.771 78.68 190.451 78.784 190.243 78.992C190.051 79.2 189.955 79.512 189.955 79.928V82.376H192.499V83.6H189.955V95H188.563Z" fill="white"/>
<path d="M194.319 95V82.376H195.399L195.543 84.536H195.687C195.783 84.152 195.935 83.776 196.143 83.408C196.367 83.024 196.679 82.712 197.079 82.472C197.479 82.216 197.975 82.088 198.567 82.088C198.807 82.088 199.015 82.104 199.191 82.136C199.367 82.168 199.495 82.2 199.575 82.232V83.48H198.879C198.303 83.48 197.807 83.6 197.391 83.84C196.991 84.064 196.663 84.368 196.407 84.752C196.167 85.136 195.991 85.568 195.879 86.048C195.767 86.528 195.711 87.016 195.711 87.512V95H194.319Z" fill="white"/>
<path d="M206.198 95.288C205.014 95.288 204.006 95.056 203.174 94.592C202.342 94.112 201.71 93.384 201.278 92.408C200.846 91.432 200.63 90.192 200.63 88.688C200.63 87.168 200.846 85.928 201.278 84.968C201.71 83.992 202.342 83.272 203.174 82.808C204.006 82.328 205.014 82.088 206.198 82.088C207.398 82.088 208.406 82.328 209.222 82.808C210.054 83.272 210.686 83.992 211.118 84.968C211.566 85.928 211.79 87.168 211.79 88.688C211.79 90.192 211.566 91.432 211.118 92.408C210.686 93.384 210.054 94.112 209.222 94.592C208.406 95.056 207.398 95.288 206.198 95.288ZM206.198 94.064C207.062 94.064 207.798 93.896 208.406 93.56C209.03 93.208 209.502 92.664 209.822 91.928C210.142 91.176 210.302 90.208 210.302 89.024V88.352C210.302 87.152 210.142 86.184 209.822 85.448C209.502 84.712 209.03 84.176 208.406 83.84C207.798 83.488 207.062 83.312 206.198 83.312C205.334 83.312 204.598 83.488 203.99 83.84C203.382 84.176 202.91 84.712 202.574 85.448C202.254 86.184 202.094 87.152 202.094 88.352V89.024C202.094 90.208 202.254 91.176 202.574 91.928C202.91 92.664 203.382 93.208 203.99 93.56C204.598 93.896 205.334 94.064 206.198 94.064Z" fill="white"/>
<path d="M214.452 95V82.376H215.508L215.676 84.44H215.844C216.212 83.832 216.612 83.36 217.044 83.024C217.476 82.672 217.94 82.432 218.436 82.304C218.948 82.16 219.492 82.088 220.068 82.088C220.932 82.088 221.676 82.264 222.3 82.616C222.924 82.968 223.348 83.576 223.572 84.44H223.74C224.076 83.848 224.46 83.384 224.892 83.048C225.324 82.696 225.788 82.448 226.284 82.304C226.796 82.16 227.332 82.088 227.892 82.088C228.66 82.088 229.332 82.216 229.908 82.472C230.484 82.712 230.932 83.128 231.252 83.72C231.572 84.296 231.732 85.088 231.732 86.096V95H230.34V86.168C230.34 85.576 230.268 85.096 230.124 84.728C229.98 84.36 229.772 84.08 229.5 83.888C229.244 83.68 228.948 83.536 228.612 83.456C228.276 83.376 227.908 83.336 227.508 83.336C226.868 83.336 226.26 83.496 225.684 83.816C225.124 84.136 224.668 84.608 224.316 85.232C223.964 85.856 223.788 86.616 223.788 87.512V95H222.396V86.168C222.396 85.576 222.324 85.096 222.18 84.728C222.036 84.36 221.836 84.08 221.58 83.888C221.34 83.68 221.052 83.536 220.716 83.456C220.38 83.376 220.028 83.336 219.66 83.336C219.004 83.336 218.38 83.496 217.788 83.816C217.212 84.136 216.74 84.608 216.372 85.232C216.02 85.856 215.844 86.616 215.844 87.512V95H214.452Z" fill="white"/>
<path d="M242.897 95.264C242.353 95.264 241.921 95.176 241.601 95C241.297 94.824 241.081 94.568 240.953 94.232C240.825 93.896 240.761 93.512 240.761 93.08V83.6H239.033V82.376H240.785L241.049 78.872H242.153V82.376H244.673V83.6H242.153V92.744C242.153 93.208 242.209 93.544 242.321 93.752C242.449 93.96 242.729 94.064 243.161 94.064H244.673V94.928C244.513 95.008 244.329 95.072 244.121 95.12C243.913 95.168 243.697 95.2 243.473 95.216C243.265 95.248 243.073 95.264 242.897 95.264Z" fill="white"/>
<path d="M247.03 95V77.648H248.422V84.056H248.59C248.958 83.56 249.358 83.176 249.79 82.904C250.222 82.616 250.686 82.408 251.182 82.28C251.678 82.152 252.214 82.088 252.79 82.088C253.59 82.088 254.286 82.216 254.878 82.472C255.486 82.728 255.95 83.152 256.27 83.744C256.606 84.32 256.774 85.104 256.774 86.096V95H255.382V86.168C255.382 85.592 255.302 85.12 255.142 84.752C254.998 84.368 254.79 84.08 254.518 83.888C254.246 83.68 253.926 83.536 253.558 83.456C253.206 83.376 252.814 83.336 252.382 83.336C251.726 83.336 251.086 83.488 250.462 83.792C249.854 84.096 249.358 84.552 248.974 85.16C248.606 85.768 248.422 86.552 248.422 87.512V95H247.03Z" fill="white"/>
<path d="M264.813 95.288C263.645 95.288 262.645 95.056 261.813 94.592C260.997 94.112 260.373 93.384 259.941 92.408C259.525 91.432 259.317 90.192 259.317 88.688C259.317 87.168 259.525 85.928 259.941 84.968C260.373 83.992 261.005 83.272 261.837 82.808C262.685 82.328 263.725 82.088 264.957 82.088C266.125 82.088 267.101 82.32 267.885 82.784C268.669 83.248 269.261 83.912 269.661 84.776C270.061 85.64 270.261 86.68 270.261 87.896V89.048H260.781C260.781 90.264 260.941 91.248 261.261 92C261.597 92.736 262.069 93.272 262.677 93.608C263.285 93.928 264.013 94.088 264.861 94.088C265.549 94.088 266.133 94 266.613 93.824C267.109 93.632 267.509 93.384 267.813 93.08C268.133 92.776 268.373 92.424 268.533 92.024C268.709 91.624 268.805 91.216 268.821 90.8H270.165C270.149 91.376 270.037 91.936 269.829 92.48C269.621 93.008 269.301 93.488 268.869 93.92C268.437 94.336 267.885 94.672 267.213 94.928C266.541 95.168 265.741 95.288 264.813 95.288ZM260.781 87.872H268.821C268.821 87.024 268.717 86.312 268.509 85.736C268.317 85.144 268.045 84.672 267.693 84.32C267.341 83.952 266.925 83.688 266.445 83.528C265.965 83.368 265.437 83.288 264.861 83.288C264.013 83.288 263.293 83.456 262.701 83.792C262.125 84.112 261.669 84.608 261.333 85.28C261.013 85.952 260.829 86.816 260.781 87.872Z" fill="white"/>
<path d="M282.955 95.288C281.771 95.288 280.763 95.056 279.931 94.592C279.099 94.112 278.467 93.384 278.035 92.408C277.603 91.432 277.387 90.192 277.387 88.688C277.387 87.168 277.603 85.928 278.035 84.968C278.467 83.992 279.099 83.272 279.931 82.808C280.763 82.328 281.771 82.088 282.955 82.088C284.155 82.088 285.163 82.328 285.979 82.808C286.811 83.272 287.443 83.992 287.875 84.968C288.323 85.928 288.547 87.168 288.547 88.688C288.547 90.192 288.323 91.432 287.875 92.408C287.443 93.384 286.811 94.112 285.979 94.592C285.163 95.056 284.155 95.288 282.955 95.288ZM282.955 94.064C283.819 94.064 284.555 93.896 285.163 93.56C285.787 93.208 286.259 92.664 286.579 91.928C286.899 91.176 287.059 90.208 287.059 89.024V88.352C287.059 87.152 286.899 86.184 286.579 85.448C286.259 84.712 285.787 84.176 285.163 83.84C284.555 83.488 283.819 83.312 282.955 83.312C282.091 83.312 281.355 83.488 280.747 83.84C280.139 84.176 279.667 84.712 279.331 85.448C279.011 86.184 278.851 87.152 278.851 88.352V89.024C278.851 90.208 279.011 91.176 279.331 91.928C279.667 92.664 280.139 93.208 280.747 93.56C281.355 93.896 282.091 94.064 282.955 94.064Z" fill="white"/>
<path d="M291.21 95V77.648H292.602V95H291.21Z" fill="white"/>
<path d="M300.286 95.288C299.23 95.288 298.326 95.056 297.574 94.592C296.838 94.128 296.27 93.4 295.87 92.408C295.486 91.416 295.294 90.128 295.294 88.544C295.294 87.056 295.494 85.84 295.894 84.896C296.294 83.952 296.862 83.248 297.598 82.784C298.35 82.32 299.238 82.088 300.262 82.088C300.806 82.088 301.31 82.152 301.774 82.28C302.254 82.408 302.686 82.616 303.07 82.904C303.47 83.192 303.822 83.584 304.126 84.08H304.294V77.648H305.686V95H304.63L304.438 93.104H304.27C303.822 93.856 303.246 94.408 302.542 94.76C301.838 95.112 301.086 95.288 300.286 95.288ZM300.406 94.064C301.334 94.064 302.078 93.864 302.638 93.464C303.214 93.064 303.63 92.48 303.886 91.712C304.158 90.944 304.294 90.008 304.294 88.904V88.448C304.294 87.344 304.174 86.456 303.934 85.784C303.71 85.112 303.414 84.6 303.046 84.248C302.678 83.88 302.27 83.632 301.822 83.504C301.39 83.376 300.966 83.312 300.55 83.312C299.718 83.312 299.022 83.488 298.462 83.84C297.902 84.176 297.478 84.712 297.19 85.448C296.902 86.184 296.758 87.152 296.758 88.352V89.024C296.758 90.288 296.91 91.288 297.214 92.024C297.534 92.76 297.966 93.288 298.51 93.608C299.07 93.912 299.702 94.064 300.406 94.064Z" fill="white"/>
<path d="M313.844 95.288C312.676 95.288 311.676 95.056 310.844 94.592C310.028 94.112 309.404 93.384 308.972 92.408C308.556 91.432 308.348 90.192 308.348 88.688C308.348 87.168 308.556 85.928 308.972 84.968C309.404 83.992 310.036 83.272 310.868 82.808C311.716 82.328 312.756 82.088 313.988 82.088C315.156 82.088 316.132 82.32 316.916 82.784C317.7 83.248 318.292 83.912 318.692 84.776C319.092 85.64 319.292 86.68 319.292 87.896V89.048H309.812C309.812 90.264 309.972 91.248 310.292 92C310.628 92.736 311.1 93.272 311.708 93.608C312.316 93.928 313.044 94.088 313.892 94.088C314.58 94.088 315.164 94 315.644 93.824C316.14 93.632 316.54 93.384 316.844 93.08C317.164 92.776 317.404 92.424 317.564 92.024C317.74 91.624 317.836 91.216 317.852 90.8H319.196C319.18 91.376 319.068 91.936 318.86 92.48C318.652 93.008 318.332 93.488 317.9 93.92C317.468 94.336 316.916 94.672 316.244 94.928C315.572 95.168 314.772 95.288 313.844 95.288ZM309.812 87.872H317.852C317.852 87.024 317.748 86.312 317.54 85.736C317.348 85.144 317.076 84.672 316.724 84.32C316.372 83.952 315.956 83.688 315.476 83.528C314.996 83.368 314.468 83.288 313.892 83.288C313.044 83.288 312.324 83.456 311.732 83.792C311.156 84.112 310.7 84.608 310.364 85.28C310.044 85.952 309.86 86.816 309.812 87.872Z" fill="white"/>
<path d="M325.968 95.288C325.152 95.288 324.432 95.208 323.808 95.048C323.184 94.888 322.664 94.656 322.248 94.352C321.832 94.032 321.511 93.64 321.287 93.176C321.079 92.696 320.976 92.152 320.976 91.544C320.976 91.48 320.976 91.408 320.976 91.328C320.992 91.248 320.999 91.176 320.999 91.112H322.391C322.375 91.208 322.368 91.288 322.368 91.352C322.368 91.4 322.368 91.456 322.368 91.52C322.368 92.192 322.519 92.72 322.823 93.104C323.143 93.472 323.584 93.728 324.144 93.872C324.704 94.016 325.352 94.088 326.088 94.088C326.728 94.088 327.295 94 327.791 93.824C328.287 93.632 328.68 93.36 328.968 93.008C329.272 92.656 329.424 92.224 329.424 91.712C329.424 91.072 329.231 90.592 328.847 90.272C328.479 89.936 328 89.68 327.408 89.504C326.816 89.312 326.199 89.128 325.559 88.952C325.063 88.808 324.567 88.656 324.071 88.496C323.575 88.32 323.127 88.104 322.727 87.848C322.343 87.592 322.031 87.272 321.791 86.888C321.551 86.488 321.431 85.992 321.431 85.4C321.431 84.904 321.536 84.456 321.744 84.056C321.952 83.64 322.248 83.288 322.632 83C323.032 82.696 323.511 82.472 324.071 82.328C324.647 82.168 325.303 82.088 326.039 82.088C326.903 82.088 327.624 82.184 328.2 82.376C328.792 82.568 329.255 82.84 329.591 83.192C329.943 83.528 330.191 83.896 330.335 84.296C330.495 84.696 330.576 85.112 330.576 85.544C330.576 85.592 330.576 85.656 330.576 85.736C330.576 85.8 330.567 85.872 330.551 85.952H329.159V85.592C329.159 85.256 329.08 84.912 328.92 84.56C328.776 84.208 328.471 83.912 328.007 83.672C327.559 83.416 326.88 83.288 325.968 83.288C325.44 83.288 324.983 83.336 324.599 83.432C324.215 83.528 323.896 83.664 323.64 83.84C323.384 84 323.183 84.208 323.039 84.464C322.911 84.72 322.847 85.024 322.847 85.376C322.847 85.888 323 86.28 323.304 86.552C323.624 86.808 324.032 87.016 324.528 87.176C325.024 87.32 325.551 87.488 326.111 87.68C326.671 87.856 327.231 88.032 327.791 88.208C328.351 88.384 328.863 88.6 329.327 88.856C329.791 89.112 330.159 89.448 330.431 89.864C330.719 90.28 330.864 90.824 330.864 91.496C330.864 92.104 330.735 92.648 330.479 93.128C330.239 93.592 329.904 93.984 329.472 94.304C329.04 94.624 328.52 94.864 327.912 95.024C327.32 95.2 326.672 95.288 325.968 95.288Z" fill="white"/>
<path d="M336.202 95.264C335.658 95.264 335.226 95.176 334.906 95C334.602 94.824 334.386 94.568 334.258 94.232C334.13 93.896 334.066 93.512 334.066 93.08V83.6H332.338V82.376H334.09L334.354 78.872H335.458V82.376H337.978V83.6H335.458V92.744C335.458 93.208 335.514 93.544 335.626 93.752C335.754 93.96 336.034 94.064 336.466 94.064H337.978V94.928C337.818 95.008 337.634 95.072 337.426 95.12C337.218 95.168 337.002 95.2 336.778 95.216C336.57 95.248 336.378 95.264 336.202 95.264Z" fill="white"/>
<path d="M195.899 121.288C195.035 121.288 194.267 121.112 193.595 120.76C192.939 120.408 192.379 119.856 191.915 119.104H191.747L191.579 121H190.523V103.648H191.915V110.08H192.083C192.371 109.584 192.723 109.192 193.139 108.904C193.555 108.616 194.003 108.408 194.483 108.28C194.963 108.152 195.443 108.088 195.923 108.088C196.963 108.088 197.851 108.32 198.587 108.784C199.323 109.248 199.891 109.952 200.291 110.896C200.707 111.84 200.915 113.056 200.915 114.544C200.915 116.128 200.715 117.416 200.315 118.408C199.915 119.4 199.347 120.128 198.611 120.592C197.875 121.056 196.971 121.288 195.899 121.288ZM195.779 120.064C196.483 120.064 197.107 119.912 197.651 119.608C198.211 119.288 198.643 118.76 198.947 118.024C199.267 117.288 199.427 116.288 199.427 115.024V114.352C199.427 113.152 199.283 112.184 198.995 111.448C198.707 110.712 198.283 110.176 197.723 109.84C197.163 109.488 196.467 109.312 195.635 109.312C195.219 109.312 194.795 109.376 194.363 109.504C193.931 109.632 193.531 109.88 193.163 110.248C192.795 110.6 192.491 111.112 192.251 111.784C192.027 112.456 191.915 113.344 191.915 114.448V114.904C191.915 116.008 192.043 116.944 192.299 117.712C192.571 118.48 192.995 119.064 193.571 119.464C194.147 119.864 194.883 120.064 195.779 120.064Z" fill="white"/>
<path d="M208.305 121.288C207.137 121.288 206.137 121.056 205.305 120.592C204.489 120.112 203.865 119.384 203.433 118.408C203.017 117.432 202.809 116.192 202.809 114.688C202.809 113.168 203.017 111.928 203.433 110.968C203.865 109.992 204.497 109.272 205.329 108.808C206.177 108.328 207.217 108.088 208.449 108.088C209.617 108.088 210.593 108.32 211.377 108.784C212.161 109.248 212.753 109.912 213.153 110.776C213.553 111.64 213.753 112.68 213.753 113.896V115.048H204.273C204.273 116.264 204.433 117.248 204.753 118C205.089 118.736 205.561 119.272 206.169 119.608C206.777 119.928 207.505 120.088 208.353 120.088C209.041 120.088 209.625 120 210.105 119.824C210.601 119.632 211.001 119.384 211.305 119.08C211.625 118.776 211.865 118.424 212.025 118.024C212.201 117.624 212.297 117.216 212.313 116.8H213.657C213.641 117.376 213.529 117.936 213.321 118.48C213.113 119.008 212.793 119.488 212.361 119.92C211.929 120.336 211.377 120.672 210.705 120.928C210.033 121.168 209.233 121.288 208.305 121.288ZM204.273 113.872H212.313C212.313 113.024 212.209 112.312 212.001 111.736C211.809 111.144 211.537 110.672 211.185 110.32C210.833 109.952 210.417 109.688 209.937 109.528C209.457 109.368 208.929 109.288 208.353 109.288C207.505 109.288 206.785 109.456 206.193 109.792C205.617 110.112 205.161 110.608 204.825 111.28C204.505 111.952 204.321 112.816 204.273 113.872Z" fill="white"/>
<path d="M219.564 121.288C219.02 121.288 218.5 121.224 218.004 121.096C217.524 120.968 217.1 120.768 216.732 120.496C216.364 120.208 216.076 119.848 215.868 119.416C215.66 118.984 215.556 118.456 215.556 117.832C215.556 116.952 215.772 116.24 216.204 115.696C216.652 115.152 217.268 114.736 218.052 114.448C218.836 114.144 219.764 113.936 220.836 113.824C221.908 113.712 223.068 113.656 224.316 113.656V111.88C224.316 111.336 224.212 110.872 224.004 110.488C223.812 110.088 223.46 109.792 222.948 109.6C222.452 109.392 221.756 109.288 220.86 109.288C219.996 109.288 219.316 109.4 218.82 109.624C218.34 109.848 217.996 110.144 217.788 110.512C217.58 110.88 217.476 111.28 217.476 111.712V112.12H216.132C216.116 112.04 216.108 111.96 216.108 111.88C216.108 111.8 216.108 111.704 216.108 111.592C216.108 110.776 216.316 110.112 216.732 109.6C217.164 109.088 217.756 108.712 218.508 108.472C219.276 108.216 220.156 108.088 221.148 108.088C222.124 108.088 222.948 108.232 223.62 108.52C224.292 108.808 224.804 109.216 225.156 109.744C225.524 110.272 225.708 110.912 225.708 111.664V119.272C225.708 119.576 225.756 119.784 225.852 119.896C225.964 120.008 226.124 120.064 226.332 120.064H227.412V120.928C227.14 121.04 226.876 121.12 226.62 121.168C226.38 121.232 226.14 121.264 225.9 121.264C225.468 121.264 225.14 121.168 224.916 120.976C224.708 120.784 224.564 120.528 224.484 120.208C224.404 119.872 224.364 119.504 224.364 119.104H224.196C223.876 119.568 223.468 119.968 222.972 120.304C222.492 120.624 221.956 120.864 221.364 121.024C220.788 121.2 220.188 121.288 219.564 121.288ZM219.756 120.064C220.3 120.064 220.836 119.976 221.364 119.8C221.908 119.624 222.396 119.376 222.828 119.056C223.276 118.72 223.636 118.328 223.908 117.88C224.18 117.416 224.316 116.904 224.316 116.344V114.856C222.668 114.856 221.308 114.944 220.236 115.12C219.164 115.296 218.364 115.6 217.836 116.032C217.324 116.464 217.068 117.064 217.068 117.832C217.068 118.36 217.188 118.792 217.428 119.128C217.668 119.464 217.988 119.704 218.388 119.848C218.804 119.992 219.26 120.064 219.756 120.064Z" fill="white"/>
<path d="M229.265 121V108.376H230.321L230.489 110.44H230.657C231.025 109.832 231.433 109.36 231.881 109.024C232.345 108.672 232.841 108.432 233.369 108.304C233.897 108.16 234.449 108.088 235.025 108.088C235.825 108.088 236.521 108.216 237.113 108.472C237.721 108.728 238.185 109.152 238.505 109.744C238.841 110.32 239.009 111.104 239.009 112.096V121H237.617V112.168C237.617 111.592 237.537 111.12 237.377 110.752C237.233 110.368 237.025 110.08 236.753 109.888C236.481 109.68 236.161 109.536 235.793 109.456C235.441 109.376 235.049 109.336 234.617 109.336C233.961 109.336 233.321 109.496 232.697 109.816C232.089 110.136 231.593 110.608 231.209 111.232C230.841 111.856 230.657 112.616 230.657 113.512V121H229.265Z" fill="white"/>
<path d="M246.303 121.288C245.487 121.288 244.767 121.208 244.143 121.048C243.519 120.888 242.999 120.656 242.583 120.352C242.167 120.032 241.847 119.64 241.623 119.176C241.415 118.696 241.311 118.152 241.311 117.544C241.311 117.48 241.311 117.408 241.311 117.328C241.327 117.248 241.335 117.176 241.335 117.112H242.727C242.711 117.208 242.703 117.288 242.703 117.352C242.703 117.4 242.703 117.456 242.703 117.52C242.703 118.192 242.855 118.72 243.159 119.104C243.479 119.472 243.919 119.728 244.479 119.872C245.039 120.016 245.687 120.088 246.423 120.088C247.063 120.088 247.631 120 248.127 119.824C248.623 119.632 249.015 119.36 249.303 119.008C249.607 118.656 249.759 118.224 249.759 117.712C249.759 117.072 249.567 116.592 249.183 116.272C248.815 115.936 248.335 115.68 247.743 115.504C247.151 115.312 246.535 115.128 245.895 114.952C245.399 114.808 244.903 114.656 244.407 114.496C243.911 114.32 243.463 114.104 243.063 113.848C242.679 113.592 242.367 113.272 242.127 112.888C241.887 112.488 241.767 111.992 241.767 111.4C241.767 110.904 241.871 110.456 242.079 110.056C242.287 109.64 242.583 109.288 242.967 109C243.367 108.696 243.847 108.472 244.407 108.328C244.983 108.168 245.639 108.088 246.375 108.088C247.239 108.088 247.959 108.184 248.535 108.376C249.127 108.568 249.591 108.84 249.927 109.192C250.279 109.528 250.527 109.896 250.671 110.296C250.831 110.696 250.911 111.112 250.911 111.544C250.911 111.592 250.911 111.656 250.911 111.736C250.911 111.8 250.903 111.872 250.887 111.952H249.495V111.592C249.495 111.256 249.415 110.912 249.255 110.56C249.111 110.208 248.807 109.912 248.343 109.672C247.895 109.416 247.215 109.288 246.303 109.288C245.775 109.288 245.319 109.336 244.935 109.432C244.551 109.528 244.231 109.664 243.975 109.84C243.719 110 243.519 110.208 243.375 110.464C243.247 110.72 243.183 111.024 243.183 111.376C243.183 111.888 243.335 112.28 243.639 112.552C243.959 112.808 244.367 113.016 244.863 113.176C245.359 113.32 245.887 113.488 246.447 113.68C247.007 113.856 247.567 114.032 248.127 114.208C248.687 114.384 249.199 114.6 249.663 114.856C250.127 115.112 250.495 115.448 250.767 115.864C251.055 116.28 251.199 116.824 251.199 117.496C251.199 118.104 251.071 118.648 250.815 119.128C250.575 119.592 250.239 119.984 249.807 120.304C249.375 120.624 248.855 120.864 248.247 121.024C247.655 121.2 247.007 121.288 246.303 121.288Z" fill="white"/>
</svg>
