<svg width="32" height="32" viewBox="0 0 32 32" fill="none" xmlns="http://www.w3.org/2000/svg">
<path d="M1.70576 4.00778C1.17523 4.08908 0.700149 4.36892 0.38503 4.78574C0.0699108 5.20255 -0.0594334 5.7222 0.0254515 6.23036C0.110336 6.73852 0.402497 7.19357 0.837662 7.4954C1.27283 7.79723 1.81535 7.92112 2.34588 7.83981H8.34698L8.70705 8.79782L10.3474 13.5879L11.9877 18.3779C12.1477 18.8761 12.8278 19.3359 13.3479 19.3359H27.3505C27.9106 19.3359 28.5507 18.8761 28.7107 18.3779L31.9513 8.79782C32.1114 8.29966 31.8713 7.83981 31.3112 7.83981H13.5479L12.0277 5.08075C11.8657 4.76406 11.6157 4.49632 11.3051 4.30701C10.9945 4.1177 10.6354 4.01415 10.2673 4.00778L2.26586 4.00778C2.14609 3.99741 2.02558 3.99741 1.9058 4.00778C1.82586 4.00317 1.7457 4.00317 1.66575 4.00778L1.70576 4.00778ZM14.3481 23.168C13.2279 23.168 12.3477 24.011 12.3477 25.084C12.3477 26.157 13.2279 27 14.3481 27C15.4683 27 16.3485 26.157 16.3485 25.084C16.3485 24.011 15.4683 23.168 14.3481 23.168ZM26.3503 23.168C25.2301 23.168 24.3499 24.011 24.3499 25.084C24.3499 26.157 25.2301 27 26.3503 27C27.4705 27 28.3507 26.157 28.3507 25.084C28.3507 24.011 27.4705 23.168 26.3503 23.168Z" fill="white"/>
</svg>
