<svg width="32" height="32" viewBox="0 0 32 32" fill="none" xmlns="http://www.w3.org/2000/svg">
<path d="M26.6667 23.3334C27.1803 23.3337 27.6742 23.5315 28.0459 23.886C28.4176 24.2404 28.6387 24.7243 28.6634 25.2373C28.6881 25.7503 28.5145 26.2532 28.1785 26.6417C27.8425 27.0302 27.3699 27.2745 26.8587 27.3241L26.6667 27.3334H5.33337C4.81975 27.3332 4.32591 27.1353 3.95419 26.7809C3.58247 26.4264 3.36136 25.9426 3.33668 25.4295C3.31199 24.9165 3.48563 24.4136 3.82161 24.0251C4.15759 23.6367 4.63015 23.3923 5.14137 23.3427L5.33337 23.3334H26.6667ZM26.6667 14.0001C27.1971 14.0001 27.7058 14.2108 28.0809 14.5859C28.456 14.9609 28.6667 15.4696 28.6667 16.0001C28.6667 16.5305 28.456 17.0392 28.0809 17.4143C27.7058 17.7894 27.1971 18.0001 26.6667 18.0001H5.33337C4.80294 18.0001 4.29423 17.7894 3.91916 17.4143C3.54409 17.0392 3.33337 16.5305 3.33337 16.0001C3.33337 15.4696 3.54409 14.9609 3.91916 14.5859C4.29423 14.2108 4.80294 14.0001 5.33337 14.0001H26.6667ZM26.6667 4.66675C27.1971 4.66675 27.7058 4.87746 28.0809 5.25253C28.456 5.62761 28.6667 6.13632 28.6667 6.66675C28.6667 7.19718 28.456 7.70589 28.0809 8.08096C27.7058 8.45603 27.1971 8.66675 26.6667 8.66675H5.33337C4.80294 8.66675 4.29423 8.45603 3.91916 8.08096C3.54409 7.70589 3.33337 7.19718 3.33337 6.66675C3.33337 6.13632 3.54409 5.62761 3.91916 5.25253C4.29423 4.87746 4.80294 4.66675 5.33337 4.66675H26.6667Z" fill="black"/>
</svg>
