<svg width="32" height="32" viewBox="0 0 32 32" fill="none" xmlns="http://www.w3.org/2000/svg">
<path d="M25.5 4H5.5C4.83696 4 4.20107 4.26339 3.73223 4.73223C3.26339 5.20107 3 5.83696 3 6.5V26.5C3 27.163 3.26339 27.7989 3.73223 28.2678C4.20107 28.7366 4.83696 29 5.5 29H25.5C26.163 29 26.7989 28.7366 27.2678 28.2678C27.7366 27.7989 28 27.163 28 26.5V6.5C28 5.83696 27.7366 5.20107 27.2678 4.73223C26.7989 4.26339 26.163 4 25.5 4ZM25 23.875L8.125 7H25V23.875ZM6 9.125L22.875 26H6V9.125Z" fill="white"/>
</svg>
