<svg width="32" height="32" viewBox="0 0 32 32" fill="none" xmlns="http://www.w3.org/2000/svg">
<path fill-rule="evenodd" clip-rule="evenodd" d="M16.5 28C23.4036 28 29 22.4036 29 15.5C29 8.59644 23.4036 3 16.5 3C9.59644 3 4 8.59644 4 15.5C4 22.4036 9.59644 28 16.5 28ZM26.5506 16.3839C26.785 16.1495 26.9167 15.8315 26.9167 15.5C26.9167 15.1685 26.785 14.8505 26.5506 14.6161C26.3161 14.3817 25.9982 14.25 25.6667 14.25H17.75V6.33333C17.75 6.00181 17.6183 5.68387 17.3839 5.44945C17.1495 5.21503 16.8315 5.08333 16.5 5.08333C16.1685 5.08333 15.8505 5.21503 15.6161 5.44945C15.3817 5.68387 15.25 6.00181 15.25 6.33333V14.25H7.33333C7.00181 14.25 6.68387 14.3817 6.44945 14.6161C6.21503 14.8505 6.08333 15.1685 6.08333 15.5C6.08333 15.8315 6.21503 16.1495 6.44945 16.3839C6.68387 16.6183 7.00181 16.75 7.33333 16.75H15.25V24.6667C15.25 24.9982 15.3817 25.3161 15.6161 25.5506C15.8505 25.785 16.1685 25.9167 16.5 25.9167C16.8315 25.9167 17.1495 25.785 17.3839 25.5506C17.6183 25.3161 17.75 24.9982 17.75 24.6667V16.75H25.6667C25.9982 16.75 26.3161 16.6183 26.5506 16.3839Z" fill="black"/>
</svg>
